<?xml version="1.0" encoding="iso-8859-1"?>
<!-- Uploaded to: SVG Repo, www.svgrepo.com, Generator: SVG Repo Mixer Tools -->
<svg fill="#000000" height="800px" width="800px" version="1.1" id="Layer_1" xmlns="http://www.w3.org/2000/svg" xmlns:xlink="http://www.w3.org/1999/xlink" 
	 viewBox="0 0 512 512" xml:space="preserve">
<g>
	<g>
		<path d="M389.312,37.38C268.765-36.129,110.888,2.141,37.38,122.688S2.141,401.112,122.688,474.62
			c6.716,4.095,13.551,7.838,20.478,11.246c0.112,0.054,0.225,0.111,0.339,0.164C179.308,503.574,217.632,512,255.579,512
			c86.412,0,170.856-43.667,219.042-122.688C548.129,268.764,509.859,110.889,389.312,37.38z M193.876,46.876l-3.125,12.417
			l-66.766,37.576l-13.615-3.426C134.181,72.054,162.544,56.143,193.876,46.876z M132.356,322.567l-3.592,3.975
			c-11.173,12.364-15.968,28.877-13.158,45.302l10.121,59.149c-40.869-30.315-69.605-73.54-81.74-123.601
			c-9.164-37.806-8.119-76.479,2.604-112.817l62.856,35.972c6.232,3.567,9.361,10.92,7.608,17.884
			c-4.529,17.997,0.38,36.791,13.131,50.272l1.921,2.031C137.836,306.79,137.944,316.381,132.356,322.567z M265.372,474.01
			l-3.917-23.904l3.156-1.399c11.388-5.047,24.689-1.207,31.63,9.135l7.403,11.03C290.933,471.724,278.136,473.435,265.372,474.01z
			 M442.256,369.576c-24.103,39.527-59.297,69.701-101.141,87.325c-0.323-0.622-0.677-1.234-1.078-1.831l-12.32-18.355
			c-17.219-25.655-50.22-35.186-78.469-22.664l-16.548,7.336c-7.887,3.498-12.417,11.879-11.022,20.393l4.999,30.501
			c-19.979-2.703-39.552-8.216-58.241-16.451l-15.465-90.381c-0.838-4.893,0.591-9.812,3.92-13.494l3.592-3.975
			c18.763-20.766,18.397-52.961-0.833-73.294l-1.921-2.031c-3.798-4.016-5.26-9.613-3.912-14.975
			c5.882-23.375-4.621-48.062-25.54-60.035L60.63,158.932c2.791-5.596,5.82-11.107,9.114-16.509
			c3.627-5.946,7.511-11.676,11.624-17.19l40.698,10.241c1.525,0.384,3.078,0.574,4.625,0.574c3.231,0,6.437-0.826,9.296-2.436
			l80.452-45.278c4.531-2.55,7.817-6.849,9.084-11.892l8.854-35.185c0.201-0.8,0.33-1.6,0.425-2.398
			c7.205-0.718,14.41-1.097,21.595-1.097c39.58,0,78.524,10.851,113.175,31.982c4.035,2.46,7.962,5.048,11.799,7.736
			c-0.024,0.027-0.051,0.048-0.075,0.073L350.421,111.3l-81.369,3.159c-6.295,0.244-12.057,3.601-15.375,8.955l-35.446,57.199
			c-4.117,6.643-3.735,15.13,0.962,21.376l22.436,29.837c4.645,6.178,7.181,13.836,7.141,21.565l-0.201,38.901
			c-0.08,15.386,6.609,29.913,18.349,39.858c9.458,8.013,21.311,12.3,33.489,12.3c2.938,0,5.897-0.25,8.844-0.757l43.21-7.435
			c15.918-2.738,30.704-10.795,41.634-22.685c6.523-7.095,15.421-11.173,25.053-11.48c9.622-0.322,18.772,3.192,25.736,9.856
			l12.153,11.631c1.586,1.518,3.373,2.685,5.263,3.544C457.212,341.786,450.528,356.011,442.256,369.576z M472.236,285.654
			l-1.141-1.092c-14.381-13.764-33.255-20.996-53.157-20.359c-19.898,0.636-38.276,9.056-51.749,23.713
			c-5.292,5.756-12.45,9.656-20.156,10.982l-43.21,7.435c-5.595,0.962-9.545-1.535-11.404-3.108
			c-1.859-1.574-4.972-5.063-4.943-10.737l0.201-38.9c0.082-15.964-5.157-31.783-14.75-44.543l-14.646-19.478l23.312-37.619
			l79.207-3.074c5.059-0.196,9.831-2.408,13.249-6.145l36.221-39.585c0.403-0.44,0.773-0.897,1.127-1.363
			c28.089,28.02,48.032,63.29,57.616,102.828C474.548,231.57,475.888,258.972,472.236,285.654z"/>
	</g>
</g>
</svg>